# Blender v2.74 (sub 0) OBJ File: 'tree.blend'
# www.blender.org
mtllib tree.mtl
o tree
v -0.000000 0.000000 -0.200000
v -0.000000 2.000000 -0.200000
v 0.141421 0.000000 -0.141421
v 0.141421 2.000000 -0.141421
v 0.200000 0.000000 0.000000
v 0.200000 2.000000 0.000000
v 0.141421 0.000000 0.141421
v 0.141421 2.000000 0.141421
v -0.000000 0.000000 0.200000
v -0.000000 2.000000 0.200000
v -0.141421 0.000000 0.141421
v -0.141421 2.000000 0.141421
v -0.200000 0.000000 -0.000000
v -0.200000 2.000000 -0.000000
v -0.141421 0.000000 -0.141421
v -0.141421 2.000000 -0.141421
v -0.000000 1.123099 -0.700000
v -0.500000 0.823099 -0.866025
v -0.606218 1.123099 -0.350000
v -1.000000 0.823099 0.000000
v -0.606218 1.123099 0.350000
v -0.500000 0.823099 0.866025
v -0.000000 1.123099 0.700000
v 0.500000 0.823099 0.866026
v 0.606218 1.123099 0.350000
v 1.000000 0.823099 0.000000
v 0.606218 1.123099 -0.350000
v 0.500001 0.823099 -0.866025
v 0.000000 2.424679 0.000000
v -0.000000 1.778547 -0.592595
v -0.423282 1.524578 -0.733146
v -0.513202 1.778547 -0.296297
v -0.846564 1.524578 0.000000
v -0.513202 1.778547 0.296297
v -0.423282 1.524578 0.733146
v -0.000000 1.778547 0.592595
v 0.423282 1.524578 0.733146
v 0.513202 1.778547 0.296298
v 0.846564 1.524578 0.000000
v 0.513202 1.778547 -0.296297
v 0.423282 1.524578 -0.733146
v 0.000000 2.880417 0.000000
v -0.000000 2.333425 -0.501669
v -0.358335 2.118424 -0.620655
v -0.434458 2.333425 -0.250835
v -0.716671 2.118424 0.000000
v -0.434458 2.333425 0.250835
v -0.358335 2.118424 0.620655
v -0.000000 2.333425 0.501669
v 0.358335 2.118424 0.620655
v 0.434458 2.333425 0.250835
v 0.716671 2.118424 0.000000
v 0.434459 2.333425 -0.250834
v 0.358336 2.118424 -0.620655
v 0.000000 3.266229 0.000000
v -0.000000 2.803165 -0.424695
v -0.303354 2.621153 -0.525424
v -0.367797 2.803165 -0.212348
v -0.606707 2.621153 0.000000
v -0.367797 2.803165 0.212348
v -0.303354 2.621153 0.525424
v -0.000000 2.803165 0.424695
v 0.303354 2.621153 0.525424
v 0.367797 2.803165 0.212348
v 0.606707 2.621153 0.000000
v 0.367797 2.803165 -0.212347
v 0.303354 2.621153 -0.525424
v 0.000000 3.592843 0.000000
v -0.000000 3.200830 -0.359532
v -0.256808 3.046745 -0.444805
v -0.311364 3.200830 -0.179766
v -0.513617 3.046745 0.000000
v -0.311364 3.200830 0.179766
v -0.256808 3.046745 0.444805
v -0.000000 3.200830 0.359532
v 0.256808 3.046745 0.444805
v 0.311363 3.200830 0.179766
v 0.513617 3.046745 0.000000
v 0.311364 3.200830 -0.179766
v 0.256809 3.046745 -0.444805
v 0.000000 3.869343 0.000000
v -0.000000 1.075735 -0.611930
v -0.457588 0.770138 -0.792567
v -0.529949 1.075735 -0.305965
v -0.915177 0.770138 0.000000
v -0.529949 1.075735 0.305965
v -0.457588 0.770138 0.792567
v -0.000000 1.075735 0.611930
v 0.457588 0.770138 0.792567
v 0.529949 1.075735 0.305965
v 0.915177 0.770138 0.000000
v 0.529949 1.075735 -0.305964
v 0.457589 0.770138 -0.792567
v -0.000000 1.731182 -0.504524
v -0.380870 1.471616 -0.659688
v -0.436933 1.731182 -0.252262
v -0.761741 1.471616 0.000000
v -0.436933 1.731182 0.252262
v -0.380870 1.471616 0.659688
v -0.000000 1.731182 0.504524
v 0.380870 1.471616 0.659688
v 0.436933 1.731182 0.252262
v 0.761741 1.471616 0.000000
v 0.436933 1.731182 -0.252262
v 0.380871 1.471616 -0.659688
v -0.000000 2.286060 -0.413599
v -0.315924 2.065462 -0.547197
v -0.358190 2.286060 -0.206799
v -0.631847 2.065462 0.000000
v -0.358190 2.286060 0.206800
v -0.315924 2.065462 0.547197
v -0.000000 2.286060 0.413599
v 0.315924 2.065462 0.547197
v 0.358189 2.286060 0.206800
v 0.631847 2.065462 0.000000
v 0.358190 2.286060 -0.206799
v 0.315924 2.065462 -0.547197
v -0.000000 2.755800 -0.336625
v -0.260942 2.568191 -0.451966
v -0.291528 2.755800 -0.168312
v -0.521884 2.568191 0.000000
v -0.291528 2.755800 0.168312
v -0.260942 2.568191 0.451966
v -0.000000 2.755800 0.336625
v 0.260942 2.568191 0.451966
v 0.291528 2.755800 0.168313
v 0.521884 2.568191 0.000000
v 0.291528 2.755800 -0.168312
v 0.260942 2.568191 -0.451966
v -0.000000 3.153465 -0.271461
v -0.214397 2.993783 -0.371347
v -0.235095 3.153465 -0.135731
v -0.428793 2.993783 0.000000
v -0.235095 3.153465 0.135731
v -0.214397 2.993783 0.371347
v -0.000000 3.153465 0.271461
v 0.214397 2.993783 0.371347
v 0.235095 3.153465 0.135731
v 0.428793 2.993783 0.000000
v 0.235095 3.153465 -0.135730
v 0.214397 2.993783 -0.371347
vt 0.935991 0.402744
vt 0.935991 0.749150
vt 0.909478 0.749150
vt 0.909478 0.402744
vt 0.882966 0.749150
vt 0.882965 0.402744
vt 0.856453 0.749151
vt 0.856452 0.402744
vt 0.829940 0.749151
vt 0.829939 0.402744
vt 0.803427 0.749151
vt 0.803427 0.402744
vt 0.776914 0.749151
vt 0.776914 0.402744
vt 0.962504 0.402744
vt 0.962504 0.749150
vt 0.750402 0.749151
vt 0.750401 0.402744
vt 0.100946 0.394996
vt 0.215938 0.235525
vt 0.193859 0.453086
vt 0.296548 0.414846
vt 0.393312 0.363427
vt 0.411540 0.255376
vt 0.415391 0.145866
vt 0.330931 0.076054
vt 0.238018 0.017964
vt 0.135329 0.056203
vt 0.038565 0.107623
vt 0.020336 0.215674
vt 0.016485 0.325184
vt 0.519366 0.334908
vt 0.617095 0.201274
vt 0.597275 0.384357
vt 0.683961 0.352727
vt 0.765740 0.309980
vt 0.781690 0.219092
vt 0.785560 0.126897
vt 0.714824 0.067639
vt 0.636916 0.018190
vt 0.550229 0.049820
vt 0.468451 0.092567
vt 0.452500 0.183454
vt 0.448630 0.275650
vt 0.508007 0.686411
vt 0.591040 0.574751
vt 0.573154 0.728506
vt 0.646224 0.702489
vt 0.715253 0.667118
vt 0.729257 0.590830
vt 0.733139 0.513363
vt 0.674073 0.463091
vt 0.608926 0.420996
vt 0.535856 0.447012
vt 0.466828 0.482384
vt 0.452823 0.558672
vt 0.448941 0.636138
vt 0.182301 0.726085
vt 0.137050 0.618562
vt 0.240463 0.696988
vt 0.252792 0.633134
vt 0.256675 0.568217
vt 0.207541 0.525612
vt 0.153262 0.489791
vt 0.091798 0.511040
vt 0.033636 0.540136
vt 0.021307 0.603990
vt 0.017424 0.668908
vt 0.066558 0.711512
vt 0.120837 0.747334
vt 0.490387 0.950479
vt 0.550139 0.873477
vt 0.535400 0.980929
vt 0.586949 0.963724
vt 0.635825 0.939967
vt 0.646700 0.886722
vt 0.650564 0.832515
vt 0.609890 0.796475
vt 0.564877 0.766025
vt 0.513329 0.783230
vt 0.464452 0.806987
vt 0.453577 0.860232
vt 0.449713 0.914439
vt 0.089106 0.411415
vt 0.000197 0.332506
vt 0.000197 0.213630
vt 0.024079 0.097178
vt 0.127029 0.037740
vt 0.239821 0.000197
vt 0.342771 0.059634
vt 0.431680 0.138544
vt 0.431680 0.257420
vt 0.407797 0.373872
vt 0.304848 0.433310
vt 0.192056 0.470853
vt 0.507237 0.351493
vt 0.432073 0.282960
vt 0.432073 0.181243
vt 0.453842 0.081883
vt 0.541931 0.031025
vt 0.638864 0.000197
vt 0.726953 0.051054
vt 0.802117 0.119587
vt 0.802117 0.221304
vt 0.780349 0.320664
vt 0.692260 0.371522
vt 0.595327 0.402351
vt 0.495541 0.703175
vt 0.432073 0.643426
vt 0.432073 0.556258
vt 0.452082 0.471419
vt 0.527571 0.427835
vt 0.611050 0.402744
vt 0.686539 0.446327
vt 0.750007 0.506076
vt 0.750007 0.593244
vt 0.729998 0.678083
vt 0.654509 0.721667
vt 0.571031 0.746758
vt 0.190555 0.745696
vt 0.118502 0.765878
vt 0.053701 0.728465
vt 0.000197 0.676158
vt 0.000197 0.601333
vt 0.018744 0.528842
vt 0.083544 0.491429
vt 0.155597 0.471246
vt 0.220398 0.508659
vt 0.273902 0.560967
vt 0.273902 0.635792
vt 0.255355 0.708282
vt 0.477080 0.967628
vt 0.432073 0.921634
vt 0.432073 0.857282
vt 0.449401 0.795308
vt 0.505131 0.763132
vt 0.567466 0.747151
vt 0.623197 0.779326
vt 0.668204 0.825320
vt 0.668204 0.889672
vt 0.650876 0.951647
vt 0.595147 0.983822
vt 0.532811 0.999803
vn 0.382700 0.000000 -0.923900
vn 0.923900 0.000000 -0.382700
vn 0.923900 0.000000 0.382700
vn 0.382700 0.000000 0.923900
vn -0.382700 0.000000 0.923900
vn -0.923900 0.000000 0.382700
vn -0.382700 0.000000 -0.923900
vn -0.923900 0.000000 -0.382700
vn 0.000000 0.021900 -0.999800
vn 0.000000 1.000000 0.000000
vn 0.428500 -0.515300 -0.742200
vn 0.865800 0.021900 -0.499900
vn 0.857000 -0.515300 0.000000
vn 0.865800 0.021900 0.499900
vn 0.428500 -0.515300 0.742200
vn 0.000000 0.021900 0.999800
vn -0.428500 -0.515300 0.742200
vn -0.865800 0.021900 0.499900
vn -0.857000 -0.515300 0.000000
vn -0.865800 0.021900 -0.499900
vn -0.428500 -0.515300 -0.742200
vn 0.000000 0.023800 -0.999700
vn 0.429000 -0.513600 -0.743000
vn 0.865800 0.023800 -0.499800
vn 0.858000 -0.513600 0.000000
vn 0.865800 0.023800 0.499800
vn 0.429000 -0.513600 0.743000
vn 0.000000 0.023800 0.999700
vn -0.429000 -0.513600 0.743000
vn -0.865800 0.023800 0.499800
vn -0.858000 -0.513600 0.000000
vn -0.865800 0.023800 -0.499800
vn -0.429000 -0.513600 -0.743000
vn 0.000000 0.026100 -0.999600
vn 0.429600 -0.511600 -0.744100
vn 0.865700 0.026100 -0.499800
vn 0.859200 -0.511600 0.000000
vn 0.865700 0.026100 0.499800
vn 0.429600 -0.511600 0.744100
vn 0.000000 0.026100 0.999600
vn -0.429600 -0.511600 0.744100
vn -0.865700 0.026100 0.499800
vn -0.859200 -0.511600 0.000000
vn -0.865700 0.026100 -0.499800
vn -0.429600 -0.511600 -0.744100
vn 0.000000 0.028900 -0.999600
vn 0.430300 -0.509000 -0.745400
vn 0.865700 0.028900 -0.499800
vn 0.860700 -0.509000 0.000000
vn 0.865700 0.028900 0.499800
vn 0.430300 -0.509000 0.745400
vn 0.000000 0.028900 0.999600
vn -0.430300 -0.509000 0.745400
vn -0.865700 0.028900 0.499800
vn -0.860700 -0.509000 0.000000
vn -0.865700 0.028900 -0.499800
vn -0.430300 -0.509000 -0.745400
vn 0.000000 0.032300 -0.999500
vn 0.431300 -0.505900 -0.747000
vn 0.865600 0.032300 -0.499700
vn 0.862500 -0.505900 0.000000
vn 0.865600 0.032300 0.499700
vn 0.431300 -0.505900 0.747000
vn 0.000000 0.032300 0.999500
vn -0.431300 -0.505900 0.747000
vn -0.865600 0.032300 0.499700
vn -0.862500 -0.505900 0.000000
vn -0.865600 0.032300 -0.499700
vn -0.431300 -0.505900 -0.747000
vn 0.000000 -0.754500 -0.656300
vn -0.134600 -0.963000 -0.233200
vn -0.568300 -0.754500 -0.328100
vn -0.269300 -0.963000 0.000000
vn -0.568300 -0.754500 0.328100
vn -0.134600 -0.963000 0.233200
vn 0.000000 -0.754500 0.656300
vn 0.134600 -0.963000 0.233200
vn 0.568300 -0.754500 0.328100
vn 0.269300 -0.963000 0.000000
vn 0.568300 -0.754500 -0.328100
vn 0.134600 -0.963000 -0.233200
vn 0.000000 -0.753300 -0.657700
vn -0.133100 -0.963900 -0.230600
vn -0.569600 -0.753300 -0.328800
vn -0.266300 -0.963900 0.000000
vn -0.569600 -0.753300 0.328800
vn -0.133100 -0.963900 0.230600
vn 0.000000 -0.753300 0.657700
vn 0.133100 -0.963900 0.230600
vn 0.569600 -0.753300 0.328800
vn 0.266300 -0.963900 0.000000
vn 0.569600 -0.753300 -0.328800
vn 0.133100 -0.963900 -0.230600
vn 0.000000 -0.751800 -0.659400
vn -0.131300 -0.964900 -0.227500
vn -0.571000 -0.751800 -0.329700
vn -0.262600 -0.964900 0.000000
vn -0.571000 -0.751800 0.329700
vn -0.131300 -0.964900 0.227500
vn 0.000000 -0.751800 0.659400
vn 0.131300 -0.964900 0.227500
vn 0.571000 -0.751800 0.329700
vn 0.262600 -0.964900 0.000000
vn 0.571000 -0.751800 -0.329700
vn 0.131300 -0.964900 -0.227500
vn 0.000000 -0.750100 -0.661300
vn -0.129100 -0.966100 -0.223600
vn -0.572700 -0.750100 -0.330700
vn -0.258200 -0.966100 0.000000
vn -0.572700 -0.750100 0.330700
vn -0.129100 -0.966100 0.223600
vn 0.000000 -0.750100 0.661300
vn 0.129100 -0.966100 0.223600
vn 0.572700 -0.750100 0.330700
vn 0.258200 -0.966100 0.000000
vn 0.572700 -0.750100 -0.330700
vn 0.129100 -0.966100 -0.223600
vn 0.000000 -0.747900 -0.663800
vn -0.126400 -0.967500 -0.218900
vn -0.574800 -0.747900 -0.331900
vn -0.252800 -0.967500 0.000000
vn -0.574800 -0.747900 0.331900
vn -0.126400 -0.967500 0.218900
vn 0.000000 -0.747900 0.663800
vn 0.126400 -0.967500 0.218900
vn 0.574800 -0.747900 0.331900
vn 0.252800 -0.967500 0.000000
vn 0.574800 -0.747900 -0.331900
vn 0.126400 -0.967500 -0.218900
usemtl final
s off
f 1/1/1 2/2/1 4/3/1 3/4/1
f 3/4/2 4/3/2 6/5/2 5/6/2
f 5/6/3 6/5/3 8/7/3 7/8/3
f 7/8/4 8/7/4 10/9/4 9/10/4
f 9/10/5 10/9/5 12/11/5 11/12/5
f 11/12/6 12/11/6 14/13/6 13/14/6
f 15/15/7 16/16/7 2/2/7 1/1/7
f 13/14/8 14/13/8 16/17/8 15/18/8
s 1
f 17/19/9 29/20/10 28/21/11
f 28/21/11 29/20/10 27/22/12
f 27/22/12 29/20/10 26/23/13
f 26/23/13 29/20/10 25/24/14
f 25/24/14 29/20/10 24/25/15
f 24/25/15 29/20/10 23/26/16
f 23/26/16 29/20/10 22/27/17
f 22/27/17 29/20/10 21/28/18
f 21/28/18 29/20/10 20/29/19
f 20/29/19 29/20/10 19/30/20
f 19/30/20 29/20/10 18/31/21
f 18/31/21 29/20/10 17/19/9
f 30/32/22 42/33/10 41/34/23
f 41/34/23 42/33/10 40/35/24
f 40/35/24 42/33/10 39/36/25
f 39/36/25 42/33/10 38/37/26
f 38/37/26 42/33/10 37/38/27
f 37/38/27 42/33/10 36/39/28
f 36/39/28 42/33/10 35/40/29
f 35/40/29 42/33/10 34/41/30
f 34/41/30 42/33/10 33/42/31
f 33/42/31 42/33/10 32/43/32
f 32/43/32 42/33/10 31/44/33
f 31/44/33 42/33/10 30/32/22
f 43/45/34 55/46/10 54/47/35
f 54/47/35 55/46/10 53/48/36
f 53/48/36 55/46/10 52/49/37
f 52/49/37 55/46/10 51/50/38
f 51/50/38 55/46/10 50/51/39
f 50/51/39 55/46/10 49/52/40
f 49/52/40 55/46/10 48/53/41
f 48/53/41 55/46/10 47/54/42
f 47/54/42 55/46/10 46/55/43
f 46/55/43 55/46/10 45/56/44
f 45/56/44 55/46/10 44/57/45
f 44/57/45 55/46/10 43/45/34
f 56/58/46 68/59/10 67/60/47
f 67/60/47 68/59/10 66/61/48
f 66/61/48 68/59/10 65/62/49
f 65/62/49 68/59/10 64/63/50
f 64/63/50 68/59/10 63/64/51
f 63/64/51 68/59/10 62/65/52
f 62/65/52 68/59/10 61/66/53
f 61/66/53 68/59/10 60/67/54
f 60/67/54 68/59/10 59/68/55
f 59/68/55 68/59/10 58/69/56
f 58/69/56 68/59/10 57/70/57
f 57/70/57 68/59/10 56/58/46
f 69/71/58 81/72/10 80/73/59
f 80/73/59 81/72/10 79/74/60
f 79/74/60 81/72/10 78/75/61
f 78/75/61 81/72/10 77/76/62
f 77/76/62 81/72/10 76/77/63
f 76/77/63 81/72/10 75/78/64
f 75/78/64 81/72/10 74/79/65
f 74/79/65 81/72/10 73/80/66
f 73/80/66 81/72/10 72/81/67
f 72/81/67 81/72/10 71/82/68
f 71/82/68 81/72/10 70/83/69
f 70/83/69 81/72/10 69/71/58
f 18/31/21 17/19/9 82/84/70 83/85/71
f 19/30/20 18/31/21 83/85/71 84/86/72
f 20/29/19 19/30/20 84/86/72 85/87/73
f 21/28/18 20/29/19 85/87/73 86/88/74
f 22/27/17 21/28/18 86/88/74 87/89/75
f 23/26/16 22/27/17 87/89/75 88/90/76
f 24/25/15 23/26/16 88/90/76 89/91/77
f 25/24/14 24/25/15 89/91/77 90/92/78
f 26/23/13 25/24/14 90/92/78 91/93/79
f 27/22/12 26/23/13 91/93/79 92/94/80
f 28/21/11 27/22/12 92/94/80 93/95/81
f 17/19/9 28/21/11 93/95/81 82/84/70
f 31/44/33 30/32/22 94/96/82 95/97/83
f 32/43/32 31/44/33 95/97/83 96/98/84
f 33/42/31 32/43/32 96/98/84 97/99/85
f 34/41/30 33/42/31 97/99/85 98/100/86
f 35/40/29 34/41/30 98/100/86 99/101/87
f 36/39/28 35/40/29 99/101/87 100/102/88
f 37/38/27 36/39/28 100/102/88 101/103/89
f 38/37/26 37/38/27 101/103/89 102/104/90
f 39/36/25 38/37/26 102/104/90 103/105/91
f 40/35/24 39/36/25 103/105/91 104/106/92
f 41/34/23 40/35/24 104/106/92 105/107/93
f 30/32/22 41/34/23 105/107/93 94/96/82
f 44/57/45 43/45/34 106/108/94 107/109/95
f 45/56/44 44/57/45 107/109/95 108/110/96
f 46/55/43 45/56/44 108/110/96 109/111/97
f 47/54/42 46/55/43 109/111/97 110/112/98
f 48/53/41 47/54/42 110/112/98 111/113/99
f 49/52/40 48/53/41 111/113/99 112/114/100
f 50/51/39 49/52/40 112/114/100 113/115/101
f 51/50/38 50/51/39 113/115/101 114/116/102
f 52/49/37 51/50/38 114/116/102 115/117/103
f 53/48/36 52/49/37 115/117/103 116/118/104
f 54/47/35 53/48/36 116/118/104 117/119/105
f 43/45/34 54/47/35 117/119/105 106/108/94
f 57/70/57 56/58/46 118/120/106 119/121/107
f 58/69/56 57/70/57 119/121/107 120/122/108
f 59/68/55 58/69/56 120/122/108 121/123/109
f 60/67/54 59/68/55 121/123/109 122/124/110
f 61/66/53 60/67/54 122/124/110 123/125/111
f 62/65/52 61/66/53 123/125/111 124/126/112
f 63/64/51 62/65/52 124/126/112 125/127/113
f 64/63/50 63/64/51 125/127/113 126/128/114
f 65/62/49 64/63/50 126/128/114 127/129/115
f 66/61/48 65/62/49 127/129/115 128/130/116
f 67/60/47 66/61/48 128/130/116 129/131/117
f 56/58/46 67/60/47 129/131/117 118/120/106
f 70/83/69 69/71/58 130/132/118 131/133/119
f 71/82/68 70/83/69 131/133/119 132/134/120
f 72/81/67 71/82/68 132/134/120 133/135/121
f 73/80/66 72/81/67 133/135/121 134/136/122
f 74/79/65 73/80/66 134/136/122 135/137/123
f 75/78/64 74/79/65 135/137/123 136/138/124
f 76/77/63 75/78/64 136/138/124 137/139/125
f 77/76/62 76/77/63 137/139/125 138/140/126
f 78/75/61 77/76/62 138/140/126 139/141/127
f 79/74/60 78/75/61 139/141/127 140/142/128
f 80/73/59 79/74/60 140/142/128 141/143/129
f 69/71/58 80/73/59 141/143/129 130/132/118
